<svg xmlns="http://www.w3.org/2000/svg" xml:space="preserve" style="shape-rendering:geometricPrecision; text-rendering:geometricPrecision; image-rendering:optimizeQuality; fill-rule:evenodd; clip-rule:evenodd"
    viewBox="0 0 6.82666 6.82666" xmlns:xlink="http://www.w3.org/1999/xlink">
    <defs>
    <style type="text/css">
           <![CDATA[
            .fil0 {fill:none}
            .fil2 {fill:#000000}
            .fil1 {fill:#333333;fill-rule: nonzero}
            .fil3 {fill:#FFFFFF;fill-rule:nonzero}
           ]]>
          </style>
    </defs>
    <g id="Layer_x0020_1">
        <metadata id="CorelCorpID_0Corel-Layer" />
        <g id="_446703408">
            <rect id="_446704440" class="fil0" width="6.82666" height="6.82666" />
            <rect id="_446703600" class="fil0" x="0.853331" y="0.853331" width="5.12" height="5.12" />
        </g>
        <g id="_446703840">
            <path id="_446703384" class="fil1" d="M3.41336 4.13331c-0.368154,0 -0.701492,-0.149256 -0.942795,-0.390547 -0.241299,-0.241291 -0.390567,-0.57463 -0.390567,-0.942756 0,-0.368157 0.14926,-0.7015 0.390563,-0.942799 0.241299,-0.241303 0.574642,-0.390563 0.942799,-0.390563 0.368126,0 0.701465,0.149268 0.942756,0.390567 0.241291,0.241303 0.390551,0.574642 0.390551,0.942795 0,0.368134 -0.149256,0.701465 -0.390551,0.94276 -0.241287,0.241287 -0.57461,0.390543 -0.942756,0.390543zm-0.791961 -0.541382c0.202685,0.202673 0.482693,0.328043 0.791961,0.328043 0.30926,0 0.589252,-0.12537 0.791921,-0.328039 0.202677,-0.202677 0.328047,-0.482677 0.328047,-0.791925 0,-0.309268 -0.125374,-0.589276 -0.328047,-0.791961 -0.202677,-0.202685 -0.482681,-0.328063 -0.791921,-0.328063 -0.309272,0 -0.589283,0.125374 -0.791965,0.328059 -0.202685,0.202681 -0.328059,0.482693 -0.328059,0.791965 0,0.30924 0.125378,0.589244 0.328063,0.791921z" />
            <path id="_446703096" class="fil1" stroke-width="2%" d="M3.41336 1.06667c-0.478642,0 -0.911984,0.19402 -1.22566,0.507689 -0.313669,0.313673 -0.507689,0.747016 -0.507689,1.22566 0,0.192516 0.030878,0.376709 0.0879134,0.548035 0.0592992,0.178134 0.146933,0.343594 0.257602,0.491177l1.38783 1.85036 1.38782 -1.85036c0.11065,-0.147587 0.198268,-0.313051 0.257567,-0.491197 0.0570236,-0.171319 0.0878976,-0.355504 0.0878976,-0.548016l0 -7.87402e-006c0,-0.478642 -0.19402,-0.91198 -0.507681,-1.22565 -0.313665,-0.313669 -0.746992,-0.507689 -1.2256,-0.507689l-7.87402e-006 0zm-1.37649 0.356854c0.352291,-0.352287 0.838965,-0.570193 1.37649,-0.570193l7.87402e-006 0c0.537492,0 1.02415,0.217906 1.37643,0.570193 0.35228,0.352287 0.570185,0.838957 0.570185,1.37648l0 7.87402e-006c0,0.213945 -0.0349724,0.420618 -0.0995669,0.614685 -0.0667677,0.200583 -0.165157,0.386528 -0.289236,0.552031l-1.47282 1.96369 -0.085 0.113327 -0.085 -0.113327 -1.47283 -1.96369c-0.124098,-0.165492 -0.2225,-0.351429 -0.289272,-0.552012 -0.0646063,-0.194075 -0.0995827,-0.400752 -0.0995827,-0.614705 0,-0.537528 0.217906,-1.0242 0.570193,-1.37649z" />
        </g>
        <path class="fil2" d="M4.35611 3.74277c-0.241287,0.241287 -0.57461,0.390543 -0.942756,0.390543 -0.368154,0 -0.701492,-0.149256 -0.942795,-0.390547 -0.241299,-0.241291 -0.390567,-0.57463 -0.390567,-0.942756 0,-0.368157 0.14926,-0.7015 0.390563,-0.942799 0.241299,-0.241303 0.574642,-0.390563 0.942799,-0.390563 0.368126,0 0.701465,0.149268 0.942756,0.390567 0.241291,0.241303 0.390551,0.574642 0.390551,0.942795 0,0.368134 -0.149256,0.701465 -0.390551,0.94276zm-2.6761 -0.94276c0,0.192516 0.030878,0.376709 0.0879134,0.548035 0.0592992,0.178134 0.146933,0.343594 0.257602,0.491177l1.38783 1.85036 1.38782 -1.85036c0.11065,-0.147587 0.198268,-0.313051 0.257567,-0.491197 0.0570236,-0.171319 0.0878976,-0.355504 0.0878976,-0.548024 0,-0.478642 -0.19402,-0.91198 -0.507681,-1.22565 -0.313665,-0.313669 -0.746992,-0.507689 -1.22561,-0.507689 -0.478642,0 -0.911984,0.19402 -1.22566,0.507689 -0.313669,0.313673 -0.507689,0.747016 -0.507689,1.22566z" />
        <circle cx="3.4" cy="2.8" r="1.6" fill="#E74C3C" />
        <g transform="rotate(135 3.45 2.8)">
            <polygon class="fil3" transform="translate(-2.75 -3.2) scale(1.7 1.7)" points="4.05585,3.92344 3.626,2.96619 3.19615,3.92344 3.57767,3.72786 3.626,3.70308 3.67433,3.72786 " />
        </g>
    </g>
</svg>