<svg width="34" height="34" viewBox="0 0 34 34" fill="none" xmlns="http://www.w3.org/2000/svg">
<g clip-path="url(#clip0_2_14)">
<path d="M17 34C26.3889 34 34 26.3889 34 17C34 7.61116 26.3889 0 17 0C7.61116 0 0 7.61116 0 17C0 26.3889 7.61116 34 17 34Z" fill="#DAF0F1" fill-opacity="0.5"/>
<path d="M17 32C25.2843 32 32 25.2843 32 17C32 8.71573 25.2843 2 17 2C8.71573 2 2 8.71573 2 17C2 25.2843 8.71573 32 17 32Z" fill="#2A959B"/>
<path d="M17 7C13.13 7 10 10.13 10 14C10 19.25 17 27 17 27C17 27 24 19.25 24 14C24 10.13 20.87 7 17 7ZM17 15.5C17 18.38 17 21 17 23.88C17 22 17 18.35 17 15.5Z" fill="#DAF0F1"/>
<path d="M17 15C18.1046 15 19 14.1046 19 13C19 11.8954 18.1046 11 17 11C15.8954 11 15 11.8954 15 13C15 14.1046 15.8954 15 17 15Z" fill="#2A959B"/>
</g>
<defs>
<clipPath id="clip0_2_14">
<rect width="34" height="34" fill="white"/>
</clipPath>
</defs>
</svg>
