<svg xmlns="http://www.w3.org/2000/svg" width="35" height="35" fill="none"><path fill="#AD2C33" fill-opacity=".5" d="M17.5 35C27.165 35 35 27.165 35 17.5S27.165 0 17.5 0 0 7.835 0 17.5 7.835 35 17.5 35"/><path fill="#AD2C33" d="M17.5 32.813c8.457 0 15.313-6.856 15.313-15.313S25.957 2.188 17.5 2.188 2.188 9.043 2.188 17.5 9.043 32.813 17.5 32.813"/><path fill="#fff" d="M24 13h-1v-2c0-2.76-2.24-5-5-5s-5 2.24-5 5v2h-1c-1.1 0-2 .9-2 2v10c0 1.1.9 2 2 2h12c1.1 0 2-.9 2-2V15c0-1.1-.9-2-2-2m-9-2c0-1.66 1.34-3 3-3s3 1.34 3 3v2h-6zm9 14H12V15h12zm-6-3c1.1 0 2-.9 2-2s-.9-2-2-2-2 .9-2 2 .9 2 2 2"/></svg>