<svg width="35" height="35" viewBox="0 0 35 35" fill="none" xmlns="http://www.w3.org/2000/svg">
    <path
        d="M5.12565 29.8744C11.9598 36.7086 23.0401 36.7086 29.8743 29.8744C36.7085 23.0402 36.7085 11.9598 29.8743 5.12566C23.0401 -1.70855 11.9598 -1.70855 5.12565 5.12566C-1.70855 11.9598 -1.70855 23.0402 5.12565 29.8744Z"
        fill="#25276B" fill-opacity="0.5" />
    <path
        d="M6.67245 28.3276C12.6523 34.3075 22.3476 34.3075 28.3275 28.3276C34.3074 22.3477 34.3074 12.6523 28.3275 6.67241C22.3476 0.69253 12.6523 0.69253 6.67245 6.67241C0.692517 12.6523 0.692517 22.3477 6.67245 28.3276Z"
        fill="#25276B" />
    <path
        d="M21.9814 11.5619C22.9069 11.2562 23.7858 12.1351 23.4801 13.0606L19.2091 25.9915C18.8561 27.0602 17.3526 27.0828 16.9676 26.0252L15.0456 20.7451C14.926 20.4166 14.6677 20.1575 14.3395 20.037L9.00034 18.0778C7.94524 17.6907 7.96983 16.1899 9.03703 15.8374L21.9814 11.5619Z"
        fill="white" />
</svg>