<svg width="35" height="35" viewBox="0 0 35 35" fill="none" xmlns="http://www.w3.org/2000/svg">
  <style>
        @keyframes blinkStroke {
            0%, 100% {
                stroke-opacity: 1;
            }
            50% {
                stroke-opacity: 0;
            }
        }

        .blinking-stroke {
            animation: blinkStroke 1s infinite;
        }
    </style>
    <path
        d="M17.5 35C27.165 35 35 27.165 35 17.5C35 7.83502 27.165 0 17.5 0C7.83502 0 0 7.83502 0 17.5C0 27.165 7.83502 35 17.5 35Z"
        fill="#348A5D" fill-opacity="0.5" />
    <path
        d="M17.5 32.8125C25.9569 32.8125 32.8125 25.9569 32.8125 17.5C32.8125 9.04314 25.9569 2.1875 17.5 2.1875C9.04314 2.1875 2.1875 9.04314 2.1875 17.5C2.1875 25.9569 9.04314 32.8125 17.5 32.8125Z"
        fill="#348A5D" />
    <path
        d="M16.4703 10.1315C16.9086 9.26086 18.1515 9.26086 18.5898 10.1315L24.7133 22.295C25.2193 23.3003 24.1722 24.3794 23.1521 23.9039L18.0595 21.5293C17.7426 21.3815 17.3767 21.3811 17.0595 21.5279L11.8987 23.9179C10.8789 24.3902 9.83511 23.3117 10.3405 22.3078L16.4703 10.1315Z"
        fill="white" />
    <path
        class="blinking-stroke"
        d="M5 17.5C5 10.0442 10.0442 5 17.5 5C24.9558 5 30 10.0442 30 17.5C30 24.9558 24.9558 30 17.5 30C10.0442 30 5 24.9558 5 17.5Z"
        stroke="#348A5D" stroke-width="10" fill="none" />
</svg>
    