<svg width="35" height="35" viewBox="0 0 35 35" fill="none" xmlns="http://www.w3.org/2000/svg">
    <path
        d="M0 17.5C0 27.165 7.83502 35 17.5 35C27.165 35 35 27.165 35 17.5C35 7.83502 27.165 0 17.5 0C7.83502 0 0 7.83502 0 17.5Z"
        fill="#FFA63D" fill-opacity="0.5" />
    <path
        d="M2.1875 17.5C2.1875 25.9569 9.04314 32.8125 17.5 32.8125C25.9569 32.8125 32.8125 25.9569 32.8125 17.5C32.8125 9.04314 25.9569 2.1875 17.5 2.1875C9.04314 2.1875 2.1875 9.04314 2.1875 17.5Z"
        fill="#FFA63D" />
    <path
        d="M24.8676 16.4703C25.7382 16.9086 25.7382 18.1515 24.8676 18.5898L12.7041 24.7133C11.6988 25.2193 10.6197 24.1722 11.0952 23.1521L13.4698 18.0595C13.6176 17.7426 13.618 17.3767 13.4712 17.0595L11.0812 11.8987C10.6089 10.8789 11.6874 9.8351 12.6913 10.3405L24.8676 16.4703Z"
        fill="white" />
</svg>