<svg width="35" height="35" viewBox="0 0 35 35" fill="none" xmlns="http://www.w3.org/2000/svg">
    <path
        d="M5.1256 5.12565C-1.70853 11.9598 -1.70853 23.0401 5.1256 29.8743C11.9598 36.7085 23.0402 36.7085 29.8744 29.8743C36.7086 23.0401 36.7086 11.9598 29.8744 5.12565C23.0402 -1.70855 11.9598 -1.70855 5.1256 5.12565Z"
        fill="#AD2C33" fill-opacity="0.5" />
    <path
        d="M6.67244 6.67245C0.69252 12.6523 0.69252 22.3476 6.67244 28.3275C12.6523 34.3074 22.3476 34.3074 28.3275 28.3275C34.3074 22.3476 34.3074 12.6523 28.3275 6.67245C22.3476 0.692517 12.6523 0.692517 6.67244 6.67245Z"
        fill="#AD2C33" />
    <path
        d="M23.4372 21.9814C23.7429 22.9069 22.864 23.7858 21.9385 23.4801L9.00772 19.2091C7.93902 18.8561 7.91642 17.3526 8.97392 16.9676L14.2541 15.0456C14.5826 14.926 14.8416 14.6677 14.9621 14.3395L16.9213 9.00034C17.3085 7.94524 18.8092 7.96983 19.1617 9.03703L23.4372 21.9814Z"
        fill="white" />
</svg>