<svg width="35" height="35" viewBox="0 0 35 35" fill="none" xmlns="http://www.w3.org/2000/svg">
    <path
        d="M17.5 0C7.83502 0 0 7.83502 0 17.5C0 27.165 7.83502 35 17.5 35C27.165 35 35 27.165 35 17.5C35 7.83502 27.165 0 17.5 0Z"
        fill="#2A959B" fill-opacity="0.5" />
    <path
        d="M17.5 2.1875C9.04314 2.1875 2.1875 9.04314 2.1875 17.5C2.1875 25.9569 9.04314 32.8125 17.5 32.8125C25.9569 32.8125 32.8125 25.9569 32.8125 17.5C32.8125 9.04314 25.9569 2.1875 17.5 2.1875Z"
        fill="#2A959B" />
    <path
        d="M18.5288 24.8676C18.0905 25.7382 16.8476 25.7382 16.4093 24.8676L10.2858 12.7041C9.77977 11.6988 10.8269 10.6197 11.847 11.0952L16.9396 13.4698C17.2565 13.6176 17.6224 13.618 17.9396 13.4712L23.1004 11.0812C24.1202 10.6089 25.164 11.6874 24.6586 12.6913L18.5288 24.8676Z"
        fill="white" />
</svg>