<svg width="35" height="35" viewBox="0 0 35 35" fill="none" xmlns="http://www.w3.org/2000/svg">
    <path
        d="M29.8743 5.1256C23.0401 -1.70853 11.9598 -1.70853 5.12565 5.1256C-1.70855 11.9598 -1.70855 23.0402 5.12565 29.8744C11.9598 36.7086 23.0401 36.7086 29.8743 29.8744C36.7085 23.0402 36.7085 11.9598 29.8743 5.1256Z"
        fill="#FFA63D" fill-opacity="0.5" />
    <path
        d="M28.3275 6.67244C22.3476 0.69252 12.6523 0.69252 6.67245 6.67244C0.692517 12.6523 0.692517 22.3476 6.67245 28.3275C12.6523 34.3074 22.3476 34.3074 28.3275 28.3275C34.3074 22.3476 34.3074 12.6523 28.3275 6.67244Z"
        fill="#FFA63D" />
    <path
        d="M13.0196 23.4372C12.0941 23.7429 11.2152 22.864 11.5209 21.9385L15.7919 9.00772C16.1449 7.93902 17.6484 7.91642 18.0334 8.97392L19.9554 14.2541C20.0749 14.5826 20.3333 14.8416 20.6615 14.9621L26.0007 16.9213C27.0558 17.3085 27.0312 18.8092 25.964 19.1617L13.0196 23.4372Z"
        fill="white" />
</svg>