<svg width="35" height="35" viewBox="0 0 35 35" fill="none" xmlns="http://www.w3.org/2000/svg">
    <path
        d="M35 17.5C35 7.83502 27.165 0 17.5 0C7.83502 0 0 7.83502 0 17.5C0 27.165 7.83502 35 17.5 35C27.165 35 35 27.165 35 17.5Z"
        fill="#348A5D" fill-opacity="0.5" />
    <path
        d="M32.8125 17.5C32.8125 9.04314 25.9569 2.1875 17.5 2.1875C9.04314 2.1875 2.1875 9.04314 2.1875 17.5C2.1875 25.9569 9.04314 32.8125 17.5 32.8125C25.9569 32.8125 32.8125 25.9569 32.8125 17.5Z"
        fill="#348A5D" />
    <path
        d="M10.1315 18.5288C9.26086 18.0905 9.26086 16.8476 10.1315 16.4093L22.295 10.2858C23.3003 9.77977 24.3794 10.8269 23.9039 11.847L21.5293 16.9396C21.3815 17.2565 21.3811 17.6224 21.5279 17.9396L23.9179 23.1004C24.3902 24.1202 23.3117 25.164 22.3078 24.6586L10.1315 18.5288Z"
        fill="white" />
</svg>