<svg width="35" height="35" viewBox="0 0 35 35" fill="none" xmlns="http://www.w3.org/2000/svg">
    <path
        d="M29.8744 29.8743C36.7086 23.0401 36.7086 11.9598 29.8744 5.12565C23.0402 -1.70855 11.9598 -1.70855 5.12566 5.12565C-1.70855 11.9598 -1.70855 23.0401 5.12566 29.8743C11.9598 36.7085 23.0402 36.7085 29.8744 29.8743Z"
        fill="#AD2C33" fill-opacity="0.5" />
    <path
        d="M28.3276 28.3275C34.3075 22.3476 34.3075 12.6523 28.3276 6.67245C22.3477 0.692517 12.6523 0.692517 6.67241 6.67245C0.69253 12.6523 0.69253 22.3476 6.67241 28.3275C12.6523 34.3074 22.3477 34.3074 28.3276 28.3275Z"
        fill="#AD2C33" />
    <path
        d="M11.5619 13.0196C11.2562 12.0941 12.1351 11.2152 13.0606 11.5209L25.9915 15.7919C27.0602 16.1449 27.0828 17.6484 26.0252 18.0334L20.7451 19.9554C20.4166 20.0749 20.1575 20.3333 20.037 20.6615L18.0778 26.0007C17.6907 27.0558 16.1899 27.0312 15.8374 25.964L11.5619 13.0196Z"
        fill="white" />
</svg>