<svg width="123" height="28" viewBox="0 0 123 28" fill="none" xmlns="http://www.w3.org/2000/svg">
<mask id="path-1-inside-1_450_11254" fill="white">
<path fill-rule="evenodd" clip-rule="evenodd" d="M8 0C3.58172 0 0 3.58171 0 7.99999V15.2289C0 19.6472 3.58172 23.2289 8 23.2289H55.1333L58.5 28L61.8667 23.2289H115C119.418 23.2289 123 19.6472 123 15.2289V8C123 3.58172 119.418 0 115 0H8Z"/>
</mask>
<path fill-rule="evenodd" clip-rule="evenodd" d="M8 0C3.58172 0 0 3.58171 0 7.99999V15.2289C0 19.6472 3.58172 23.2289 8 23.2289H55.1333L58.5 28L61.8667 23.2289H115C119.418 23.2289 123 19.6472 123 15.2289V8C123 3.58172 119.418 0 115 0H8Z" fill="white"/>
<path d="M55.1333 23.2289L55.9503 22.6524L55.6515 22.2289H55.1333V23.2289ZM58.5 28L57.6829 28.5766L58.5 29.7344L59.3171 28.5766L58.5 28ZM61.8667 23.2289V22.2289H61.3485L61.0497 22.6524L61.8667 23.2289ZM1 7.99999C1 4.134 4.13401 1 8 1V-1C3.02944 -1 -1 3.02943 -1 7.99999H1ZM1 15.2289V7.99999H-1V15.2289H1ZM8 22.2289C4.13401 22.2289 1 19.0949 1 15.2289H-1C-1 20.1995 3.02944 24.2289 8 24.2289V22.2289ZM55.1333 22.2289H8V24.2289H55.1333V22.2289ZM54.3162 23.8055L57.6829 28.5766L59.3171 27.4234L55.9503 22.6524L54.3162 23.8055ZM59.3171 28.5766L62.6838 23.8055L61.0497 22.6524L57.6829 27.4234L59.3171 28.5766ZM115 22.2289H61.8667V24.2289H115V22.2289ZM122 15.2289C122 19.0949 118.866 22.2289 115 22.2289V24.2289C119.971 24.2289 124 20.1995 124 15.2289H122ZM122 8V15.2289H124V8H122ZM115 1C118.866 1 122 4.13401 122 8H124C124 3.02944 119.971 -1 115 -1V1ZM8 1H115V-1H8V1Z" fill="#FFA63D" fill-opacity="0.5" mask="url(#path-1-inside-1_450_11254)"/>
</svg>
