<svg width="34" height="34" viewBox="0 0 34 34" fill="none" xmlns="http://www.w3.org/2000/svg">
<g clip-path="url(#clip0_6_15)">
<path d="M17 34C26.3889 34 34 26.3889 34 17C34 7.61116 26.3889 0 17 0C7.61116 0 0 7.61116 0 17C0 26.3889 7.61116 34 17 34Z" fill="#2A959B"/>
<path d="M17 32C25.2843 32 32 25.2843 32 17C32 8.71573 25.2843 2 17 2C8.71573 2 2 8.71573 2 17C2 25.2843 8.71573 32 17 32Z" fill="#DAF0F1"/>
<path d="M20.3333 9H18.6667V12.5556H15.3333V9H13.6667V12.5556H13.6583C12.75 12.5467 12 13.3467 12 14.3156V19.2222L14.9167 22.3333V25H19.0833V22.3333L22 19.2133V14.3333C22 13.3556 21.25 12.5556 20.3333 12.5556V9Z" fill="#2A959B"/>
</g>
<defs>
<clipPath id="clip0_6_15">
<rect width="34" height="34" fill="white"/>
</clipPath>
</defs>
</svg>
