<svg xmlns="http://www.w3.org/2000/svg" xml:space="preserve" style="shape-rendering:geometricPrecision;text-rendering:geometricPrecision;image-rendering:optimizeQuality;fill-rule:evenodd;clip-rule:evenodd" viewBox="0 0 48 48"><defs><style>.fil0{fill:none}.fil1{fill:#333;fill-rule:nonzero}</style></defs><g id="Layer_x0020_1"><g id="_446703408"><path id="_446704440" d="M0 0h6.827v6.827H0z" class="fil0"/><path id="_446703600" d="M.853.853h5.12v5.12H.853z" class="fil0"/></g><g id="_446703840"><path id="_446703384" d="M3.413 4.133A1.33 1.33 0 0 1 2.08 2.8a1.33 1.33 0 0 1 2.276-.943 1.33 1.33 0 0 1 0 1.886 1.33 1.33 0 0 1-.943.39zm-.792-.541a1.117 1.117 0 0 0 1.584 0 1.116 1.116 0 0 0 0-1.584 1.116 1.116 0 0 0-1.584 0 1.117 1.117 0 0 0 0 1.584z" class="fil1"/><path id="_446703096" stroke-width="2%" d="M3.413 1.067a1.728 1.728 0 0 0-1.645 2.281c.06.178.147.344.258.491l1.387 1.85 1.388-1.85A1.73 1.73 0 0 0 5.147 2.8c0-.479-.194-.912-.508-1.226a1.728 1.728 0 0 0-1.226-.507zm-1.376.357a1.94 1.94 0 0 1 1.376-.57 1.94 1.94 0 0 1 1.377.57 1.943 1.943 0 0 1 .181 2.543L3.498 5.93l-.085.114-.085-.114-1.472-1.963a1.943 1.943 0 0 1 .18-2.543z" class="fil1"/></g><path d="M4.356 3.743a1.33 1.33 0 0 1-1.885 0 1.33 1.33 0 0 1 0-1.886 1.33 1.33 0 0 1 1.885 0 1.33 1.33 0 0 1 0 1.886zM1.68 2.8a1.732 1.732 0 0 0 .346 1.04l1.387 1.85 1.388-1.85a1.73 1.73 0 0 0-.162-2.266 1.728 1.728 0 0 0-1.226-.507A1.728 1.728 0 0 0 1.68 2.8z" style="fill:#000"/><circle cx="3.4" cy="2.8" r="1.6" fill="#F8C471"/><path d="m4.056 3.923-.43-.957-.43.957.382-.195.048-.025.048.025z" style="fill:#fff;fill-rule:nonzero" transform="matrix(1.7 0 0 1.7 -2.75 -3.2)"/></g></svg>